<svg width="98" height="64" viewBox="0 0 98 64" fill="none" xmlns="http://www.w3.org/2000/svg">
<path d="M16 32.315C16 31.7923 16.098 31.307 16.294 30.859C16.49 30.4017 16.7513 30.0003 17.078 29.655C17.414 29.3003 17.792 29.025 18.212 28.829C18.6413 28.633 19.08 28.535 19.528 28.535C20.004 28.535 20.4707 28.6563 20.928 28.899C21.3853 29.1417 21.796 29.4823 22.16 29.921C22.5333 30.3597 22.8273 30.8777 23.042 31.475C23.2567 32.0723 23.364 32.721 23.364 33.421C23.364 34.6343 23.1867 35.6657 22.832 36.515C22.4867 37.3737 21.9827 38.0223 21.32 38.461C20.6573 38.909 19.8547 39.133 18.912 39.133C18.3427 39.133 17.8433 39.077 17.414 38.965C16.994 38.853 16.6627 38.741 16.42 38.629C16.1773 38.517 16.056 38.461 16.056 38.461L16.658 36.949H16.798C17.1713 37.1357 17.568 37.271 17.988 37.355C18.408 37.439 18.7813 37.481 19.108 37.481C19.5467 37.481 19.9153 37.4437 20.214 37.369C20.522 37.3037 20.8067 37.201 21.068 37.061L20.48 37.565C20.7133 37.285 20.9 36.963 21.04 36.599C21.18 36.2443 21.278 35.829 21.334 35.353C21.3993 34.8677 21.432 34.3077 21.432 33.673C21.432 33.2623 21.3853 32.8563 21.292 32.455C21.1987 32.0443 21.0493 31.6617 20.844 31.307C20.648 30.9523 20.3913 30.635 20.074 30.355C19.7567 30.075 19.3693 29.8603 18.912 29.711L19.934 29.641C19.234 29.865 18.7113 30.2103 18.366 30.677C18.03 31.1437 17.862 31.6337 17.862 32.147C17.862 32.455 17.946 32.7397 18.114 33.001C18.282 33.253 18.5293 33.4537 18.856 33.603C19.192 33.7523 19.6027 33.827 20.088 33.827H21.81L22.02 33.799H24.68V35.213L24.4 35.493H19.878C19.15 35.493 18.492 35.3763 17.904 35.143C17.316 34.9097 16.8493 34.555 16.504 34.079C16.168 33.603 16 33.015 16 32.315Z" fill="black"/>
<path d="M24.1232 35.493V34.079L24.4032 33.799H26.9232L26.2512 34.135C26.1765 34.0137 26.1158 33.8223 26.0692 33.561C26.0318 33.2997 26.0132 32.9963 26.0132 32.651V28.409L27.8472 28.185H27.9732V32.973C27.9732 33.1597 27.9732 33.3837 27.9732 33.645C27.9825 33.9063 27.9918 34.163 28.0012 34.415C28.0198 34.667 28.0478 34.877 28.0852 35.045V35.157C27.8052 35.269 27.4598 35.353 27.0492 35.409C26.6385 35.465 26.1392 35.493 25.5512 35.493H24.1232ZM28.1552 26.785C27.8845 26.785 27.6558 26.701 27.4692 26.533C27.2825 26.3557 27.1892 26.1223 27.1892 25.833C27.1892 25.5343 27.2825 25.301 27.4692 25.133C27.6558 24.9557 27.8845 24.867 28.1552 24.867C28.4258 24.867 28.6498 24.9557 28.8272 25.133C29.0138 25.301 29.1072 25.5343 29.1072 25.833C29.1072 26.1223 29.0138 26.3557 28.8272 26.533C28.6498 26.701 28.4258 26.785 28.1552 26.785ZM25.9152 27.065C25.6445 27.065 25.4158 26.981 25.2292 26.813C25.0518 26.6357 24.9632 26.3977 24.9632 26.099C24.9632 25.8003 25.0518 25.567 25.2292 25.399C25.4158 25.231 25.6445 25.147 25.9152 25.147C26.1858 25.147 26.4098 25.231 26.5872 25.399C26.7738 25.567 26.8672 25.8003 26.8672 26.099C26.8672 26.3977 26.7738 26.6357 26.5872 26.813C26.4098 26.981 26.1858 27.065 25.9152 27.065Z" fill="black"/>
<path d="M39.9963 35.493V33.799H45.7643V35.213L45.4843 35.493H39.9963ZM30.2383 32.861H30.3643C30.467 32.9077 30.6117 32.9683 30.7983 33.043C30.985 33.1083 31.1717 33.169 31.3583 33.225C31.545 33.281 31.6897 33.3277 31.7923 33.365C32.287 33.505 32.833 33.603 33.4303 33.659C34.037 33.715 34.625 33.7523 35.1943 33.771C35.773 33.7897 36.263 33.799 36.6643 33.799H42.7263L42.0543 34.135C41.9703 34.0137 41.9097 33.827 41.8723 33.575C41.835 33.3137 41.8163 33.0103 41.8163 32.665V28.409L43.6363 28.185H43.7763V32.973C43.7763 33.1597 43.7763 33.3837 43.7763 33.645C43.7857 33.9063 43.795 34.163 43.8043 34.415C43.823 34.667 43.851 34.877 43.8883 35.045L43.8603 35.157C43.5803 35.269 43.2117 35.353 42.7543 35.409C42.3063 35.465 41.7883 35.493 41.2003 35.493H36.6643C35.8243 35.493 34.989 35.4697 34.1583 35.423C33.3277 35.3763 32.4037 35.2363 31.3863 35.003C31.209 34.9563 31.0223 34.905 30.8263 34.849C30.6303 34.7837 30.4437 34.723 30.2663 34.667C30.0983 34.6017 29.9537 34.541 29.8323 34.485L30.2383 32.861ZM36.1183 37.817C36.1183 37.5183 36.2117 37.285 36.3983 37.117C36.585 36.949 36.8137 36.865 37.0843 36.865C37.3457 36.865 37.5697 36.949 37.7563 37.117C37.943 37.285 38.0363 37.5183 38.0363 37.817C38.0363 38.1157 37.943 38.349 37.7563 38.517C37.579 38.685 37.3503 38.769 37.0703 38.769C36.809 38.769 36.585 38.685 36.3983 38.517C36.2117 38.349 36.1183 38.1157 36.1183 37.817Z" fill="black"/>
<path d="M45.7586 33.799H48.2926L47.6206 34.135C47.546 34.0137 47.4853 33.827 47.4386 33.575C47.4013 33.3137 47.3826 33.0103 47.3826 32.665V28.409L49.2166 28.185H49.3426V34.597L48.5446 33.799H51.2606V35.213L50.9806 35.493H45.4786V34.079L45.7586 33.799ZM47.9146 37.565C47.9146 37.2663 48.008 37.033 48.1946 36.865C48.3813 36.697 48.6053 36.613 48.8666 36.613C49.1373 36.613 49.366 36.697 49.5526 36.865C49.7393 37.033 49.8326 37.2663 49.8326 37.565C49.8326 37.8637 49.7393 38.097 49.5526 38.265C49.366 38.433 49.1373 38.517 48.8666 38.517C48.6053 38.517 48.3813 38.433 48.1946 38.265C48.008 38.097 47.9146 37.8637 47.9146 37.565ZM45.6746 37.831C45.6746 37.5417 45.768 37.3083 45.9546 37.131C46.1413 36.963 46.37 36.879 46.6406 36.879C46.902 36.879 47.126 36.963 47.3126 37.131C47.4993 37.3083 47.5926 37.5417 47.5926 37.831C47.5926 38.1297 47.4993 38.363 47.3126 38.531C47.1353 38.7083 46.9066 38.797 46.6266 38.797C46.3653 38.797 46.1413 38.7083 45.9546 38.531C45.768 38.363 45.6746 38.1297 45.6746 37.831Z" fill="black"/>
<path d="M50.9747 35.493V34.079L51.2547 33.799H58.1007L57.6387 34.023C57.1534 33.771 56.6261 33.4023 56.0567 32.917C55.4874 32.4223 54.8901 31.8343 54.2647 31.153C53.6394 30.4717 52.9954 29.7157 52.3327 28.885L53.5227 27.457H53.6487C54.6754 28.6797 55.5761 29.7017 56.3507 30.523C57.1347 31.335 57.8114 31.979 58.3807 32.455C58.9501 32.931 59.4307 33.2763 59.8227 33.491C60.2241 33.6963 60.5507 33.799 60.8027 33.799H61.9787V33.925L61.4187 35.493H50.9747ZM54.2927 37.831C54.2927 37.5323 54.3861 37.299 54.5727 37.131C54.7594 36.963 54.9881 36.879 55.2587 36.879C55.5201 36.879 55.7441 36.963 55.9307 37.131C56.1174 37.299 56.2107 37.5323 56.2107 37.831C56.2107 38.1297 56.1174 38.363 55.9307 38.531C55.7534 38.699 55.5247 38.783 55.2447 38.783C54.9834 38.783 54.7594 38.699 54.5727 38.531C54.3861 38.363 54.2927 38.1297 54.2927 37.831Z" fill="black"/>
<g clip-path="url(#clip0_406_2336)">
<path d="M71.2545 35.0496C71.2545 35.0496 71.125 44.536 81.2806 47.52C81.2806 47.52 86.2033 49.352 91.5752 45.88C93.1221 44.8861 94.4567 43.5952 95.502 42.082C96.5472 40.5688 97.2824 38.8633 97.6651 37.064C98.096 35.1201 98.0857 33.1042 97.6347 31.1648C97.6242 31.1206 97.6027 31.0798 97.5722 31.0461C97.5417 31.0125 97.5032 30.9871 97.4602 30.9724C97.4173 30.9577 97.3713 30.9541 97.3266 30.962C97.2819 30.9699 97.2399 30.9891 97.2046 31.0176C96.624 31.487 96.159 32.0837 95.8456 32.7616C95.629 33.2442 95.5116 33.7655 95.5003 34.2944C95.4699 35.384 95.2876 38.1088 94.2212 39.3904C94.2212 39.3904 92.7951 41.4336 89.0555 41.4912C89.0013 41.4923 88.9478 41.4779 88.9014 41.4498C88.855 41.4216 88.8176 41.3809 88.7934 41.3322C88.7693 41.2836 88.7595 41.2291 88.7651 41.1751C88.7708 41.1211 88.7916 41.0698 88.8253 41.0272C89.3501 40.3847 90.0227 39.8791 90.7854 39.5536C91.3729 39.2874 91.913 38.927 92.3842 38.4864C92.9438 37.9584 93.4666 37.248 93.3659 36.4896C93.3598 36.4429 93.3435 36.3981 93.3181 36.3584C93.2927 36.3187 93.2588 36.2852 93.219 36.2601C93.1791 36.235 93.1342 36.2191 93.0875 36.2134C93.0407 36.2077 92.9933 36.2124 92.9486 36.2272C90.5563 36.9502 88.22 37.8476 85.9586 38.912C85.9586 38.912 84.8075 39.4544 83.9282 41.6896C83.9282 41.6896 82.7275 44.2768 81.9281 45.408C81.821 45.5602 81.667 45.673 81.4896 45.7291C81.3123 45.7852 81.1214 45.7814 80.9464 45.7184C78.9585 45.0012 77.1865 43.7879 75.7982 42.1936C74.4099 40.5993 73.4513 38.6768 73.0132 36.608L71.2545 35.0496Z" fill="#A0CCF8"/>
<path d="M65.9785 28.3328L69.7709 26.7056C69.7709 26.7056 77.6242 33.008 78.4364 39.9856C78.4364 39.9872 74.4426 32 65.9785 28.3328Z" fill="#0E33F3"/>
<path d="M68.957 22.64L74.0364 20.2688C74.0364 20.2688 81.8897 30.2304 80.6043 41.0688C80.6043 41.072 78.9112 29.76 68.957 22.64Z" fill="#0E33F3"/>
<path d="M73.9727 16C73.9727 16 79.8594 22.0992 81.7556 30.6704C81.7556 30.6704 82.9739 35.6512 82.1617 42.088C82.1617 42.088 85.4792 36.3952 83.2441 26.7056C83.2441 26.7056 82.8524 23.8608 80.7468 18.9136L90.9631 18.7776C90.9631 18.7776 94.4373 24.104 93.8074 30.2304C93.8074 30.2304 96.989 25.6224 92.3173 16.4704L73.9727 16Z" fill="#0E33F3"/>
</g>
<defs>
<clipPath id="clip0_406_2336">
<rect width="32" height="32" fill="white" transform="translate(65.9785 16)"/>
</clipPath>
</defs>
</svg>
